<svg xmlns="http://www.w3.org/2000/svg" width="200" height="200" viewBox="0 0 200 200">
<g>
<path d="M 54.03 132.17 C52.14,133.71 50.00,133.99 40.64,133.94 C30.01,133.88 25.85,133.18 24.67,131.28 C24.38,130.80 23.44,111.08 22.59,87.46 C21.73,63.83 20.79,40.58 20.49,35.78 L 20.47 35.57 C20.14,30.26 19.94,27.19 21.36,25.42 C23.30,23.00 28.27,23.00 40.01,23.00 L 40.35 23.00 C55.19,23.00 56.85,23.18 58.43,24.92 C60.08,26.74 60.07,29.43 58.23,78.59 C56.30,129.98 56.27,130.36 54.03,132.17 ZM 57.78 178.44 C56.00,179.69 52.50,180.00 40.41,180.00 C26.61,180.00 25.04,179.82 22.63,177.93 C20.08,175.91 20.00,175.54 20.00,164.93 C20.00,164.48 20.00,164.04 20.00,163.62 C19.99,157.50 19.99,154.13 21.66,152.27 C23.72,149.99 28.32,149.99 38.56,150.00 C39.14,150.00 39.73,150.00 40.35,150.00 C41.26,150.00 42.13,150.00 42.96,150.00 C52.22,149.98 56.46,149.97 58.39,152.08 C60.03,153.87 60.02,157.16 60.00,163.24 C60.00,163.88 60.00,164.56 60.00,165.27 C60.00,176.14 59.86,176.99 57.78,178.44 Z" fill="rgb(0,0,0)"/>
<path d="M 115.78 81.44 C112.64,83.64 85.81,83.63 81.75,81.43 L 79.00 79.94 L 79.00 68.02 C79.00,67.49 79.00,66.98 79.00,66.48 C78.99,60.32 78.98,56.97 80.65,55.15 C82.63,52.99 86.98,52.99 96.50,53.00 C97.14,53.00 97.81,53.00 98.50,53.00 C99.19,53.00 99.85,53.00 100.49,53.00 C110.02,52.99 114.37,52.99 116.35,55.15 C118.02,56.97 118.01,60.31 118.00,66.47 C118.00,66.96 118.00,67.47 118.00,68.00 C118.00,79.15 117.86,79.98 115.78,81.44 Z" fill="rgb(2,81,157)"/>
<path d="M 0.00 100.00 L 0.00 0.00 L 100.00 0.00 L 200.00 0.00 L 200.00 100.00 L 200.00 200.00 L 100.00 200.00 L 0.00 200.00 L 0.00 100.00 ZM 57.78 178.44 C59.86,176.99 60.00,176.14 60.00,165.27 C60.00,149.26 60.95,150.00 40.35,150.00 C19.37,150.00 20.00,149.54 20.00,164.93 C20.00,175.54 20.08,175.91 22.63,177.93 C25.04,179.82 26.61,180.00 40.41,180.00 C52.50,180.00 56.00,179.69 57.78,178.44 ZM 54.03 132.17 C56.27,130.36 56.30,129.98 58.23,78.59 C60.07,29.43 60.08,26.74 58.43,24.92 C56.85,23.18 55.19,23.00 40.35,23.00 C19.56,23.00 19.67,22.93 20.49,35.78 C20.79,40.58 21.73,63.83 22.59,87.46 C23.44,111.08 24.38,130.80 24.67,131.28 C25.85,133.18 30.01,133.88 40.64,133.94 C50.00,133.99 52.14,133.71 54.03,132.17 ZM 115.78 81.44 C117.86,79.98 118.00,79.15 118.00,68.00 C118.00,52.45 118.71,53.00 98.50,53.00 C78.29,53.00 79.00,52.45 79.00,68.02 L 79.00 79.94 L 81.75 81.43 C85.81,83.63 112.64,83.64 115.78,81.44 Z" fill="rgb(254,254,254)"/>
</g>
</svg>